<svg t="1626856569013" class="icon" viewBox="0 0 1025 1024" version="1.1" xmlns="http://www.w3.org/2000/svg" p-id="5095" width="20" height="20"><path d="M511.66989 0a510.679562 510.679562 0 1 0 511.669891 511.66989 511.66989 511.66989 0 0 0-511.669891-511.66989z" fill="#E9F5FF" p-id="5096"></path><path d="M723.435203 469.250806a126.266925 126.266925 0 0 1-71.963894 54.137975 68.662798 68.662798 0 0 1-20.136686 3.301096 23.932946 23.932946 0 0 1 0-47.865892 14.359768 14.359768 0 0 0 5.281754-0.990329 75.26499 75.26499 0 0 0 46.05029-33.010961 59.749839 59.749839 0 0 0 9.078014-33.010961 73.944552 73.944552 0 0 0-77.575758-68.992907 87.479046 87.479046 0 0 0-42.254029 10.893617 67.672469 67.672469 0 0 0-35.981948 58.09929v200.706641a113.72276 113.72276 0 0 1-59.749838 99.032882 132.869117 132.869117 0 0 1-66.021922 16.505481c-69.488072 0-126.597034-52.322373-126.597034-116.858801a111.907157 111.907157 0 0 1 16.50548-57.439072 125.606705 125.606705 0 0 1 71.963895-54.137975 74.439716 74.439716 0 0 1 20.136686-3.301096 23.932946 23.932946 0 0 1 20.796905 11.883946 24.098001 24.098001 0 0 1 0 24.098001 23.932946 23.932946 0 0 1-20.796905 11.883946 14.359768 14.359768 0 0 0-5.281754 0.990328 78.731141 78.731141 0 0 0-46.05029 33.010961 59.749839 59.749839 0 0 0-9.078014 33.010961 74.109607 74.109607 0 0 0 78.070922 68.992908 86.983881 86.983881 0 0 0 42.088975-10.893617 67.34236 67.34236 0 0 0 35.981947-58.099291V412.637008a114.548034 114.548034 0 0 1 59.914893-99.032882 126.10187 126.10187 0 0 1 65.196648-17.660864c69.488072 0 126.431979 52.322373 126.431979 116.858801a110.256609 110.256609 0 0 1-16.50548 57.439072z" fill="#66B7FF" p-id="5097"></path><path d="M629.51902 502.921986m-21.787234 0a21.787234 21.787234 0 1 0 43.574468 0 21.787234 21.787234 0 1 0-43.574468 0Z" fill="#FFBE00" p-id="5098"></path><path d="M393.985816 520.747905m-21.787234 0a21.787234 21.787234 0 1 0 43.574468 0 21.787234 21.787234 0 1 0-43.574468 0Z" fill="#FFBE00" p-id="5099"></path></svg>